<svg xmlns="http://www.w3.org/2000/svg" version="1.1" width="239.99999999999997" height="130.9090909090909" viewBox="0 0 239.99999999999997 130.9090909090909"><defs/><path fill="#000000" stroke="#000000" d="M 21.8182,109.091 L 21.8182,43.6364 L 87.2727,43.6364 L 87.2727,109.091 Z" style="stroke-width: 2px;fill-opacity: 0;stroke-opacity: 1" stroke-width="2" fill-opacity="0" stroke-opacity="1" stroke-dasharray="0"/><path fill="#29abca" stroke="#29abca" d="M 21.8182,109.091 L 21.8182,87.2727 L 87.2727,87.2727 L 87.2727,109.091 Z" style="stroke-width: 2px;fill-opacity: 1;stroke-opacity: 1" stroke-width="2" fill-opacity="1" stroke-opacity="1" stroke-dasharray="0"/><path fill="#29abca" stroke="#29abca" d="M 21.8182,87.2727 L 21.8182,65.4545 L 87.2727,65.4545 L 87.2727,87.2727 Z" style="stroke-width: 2px;fill-opacity: 1;stroke-opacity: 1" stroke-width="2" fill-opacity="1" stroke-opacity="1" stroke-dasharray="0"/><path fill="#29abca" stroke="#29abca" d="M 21.8182,65.4545 L 21.8182,43.6364 L 87.2727,43.6364 L 87.2727,65.4545 Z" style="stroke-width: 2px;fill-opacity: 1;stroke-opacity: 1" stroke-width="2" fill-opacity="1" stroke-opacity="1" stroke-dasharray="0"/><path fill="#000000" stroke="#000000" d="M 21.8182,109.091 L 87.2727,109.091" style="stroke-width: 2px;stroke-opacity: 1;fill-opacity: 0" stroke-width="2" stroke-opacity="1" stroke-dasharray="0" fill-opacity="0" transform="rotate(270 21.818181818181817 109.09090909090908)"/><path fill="#000000" stroke="#000000" d="M 43.6364,109.091 L 109.091,109.091" style="stroke-width: 2px;stroke-opacity: 1;fill-opacity: 0" stroke-width="2" stroke-opacity="1" stroke-dasharray="0" fill-opacity="0" transform="rotate(270 43.63636363636363 109.09090909090908)"/><path fill="#000000" stroke="#000000" d="M 65.4545,109.091 L 130.909,109.091" style="stroke-width: 2px;stroke-opacity: 1;fill-opacity: 0" stroke-width="2" stroke-opacity="1" stroke-dasharray="0" fill-opacity="0" transform="rotate(270 65.45454545454545 109.09090909090908)"/><path fill="#000000" stroke="#000000" d="M 21.8182,109.091 L 87.2727,109.091" style="stroke-width: 2px;stroke-opacity: 1;fill-opacity: 0" stroke-width="2" stroke-opacity="1" stroke-dasharray="0" fill-opacity="0" transform=""/><path fill="#000000" stroke="#000000" d="M 21.8182,87.2727 L 87.2727,87.2727" style="stroke-width: 2px;stroke-opacity: 1;fill-opacity: 0" stroke-width="2" stroke-opacity="1" stroke-dasharray="0" fill-opacity="0" transform=""/><path fill="#000000" stroke="#000000" d="M 21.8182,65.4545 L 87.2727,65.4545" style="stroke-width: 2px;stroke-opacity: 1;fill-opacity: 0" stroke-width="2" stroke-opacity="1" stroke-dasharray="0" fill-opacity="0" transform=""/><path fill="#000000" stroke="#000000" d="M 21.8182,43.6364 L 87.2727,43.6364" style="stroke-width: 2px;stroke-opacity: 1;fill-opacity: 0" stroke-width="2" stroke-opacity="1" stroke-dasharray="0" fill-opacity="0" transform=""/><path fill="#29abca" stroke="#29abca" d="M 87.2727,109.091 L 87.2727,87.2727 L 108.052,66.4935 L 108.052,88.3117 Z" style="stroke-width: 2px;fill-opacity: 1;stroke-opacity: 1" stroke-width="2" fill-opacity="1" stroke-opacity="1" stroke-dasharray="0"/><path fill="#29abca" stroke="#29abca" d="M 87.2727,87.2727 L 87.2727,65.4545 L 108.052,44.6753 L 108.052,66.4935 Z" style="stroke-width: 2px;fill-opacity: 1;stroke-opacity: 1" stroke-width="2" fill-opacity="1" stroke-opacity="1" stroke-dasharray="0"/><path fill="#29abca" stroke="#29abca" d="M 87.2727,65.4545 L 87.2727,43.6364 L 108.052,22.8571 L 108.052,44.6753 Z" style="stroke-width: 2px;fill-opacity: 1;stroke-opacity: 1" stroke-width="2" fill-opacity="1" stroke-opacity="1" stroke-dasharray="0"/><path fill="#000000" stroke="#000000" d="M 87.2727,109.091 L 152.727,109.091" style="stroke-width: 2px;stroke-opacity: 1;fill-opacity: 0" stroke-width="2" stroke-opacity="1" stroke-dasharray="0" fill-opacity="0" transform="rotate(270 87.27272727272727 109.09090909090908)"/><path fill="#000000" stroke="#000000" d="M 97.6623,98.7013 L 163.117,98.7013" style="stroke-width: 2px;stroke-opacity: 1;fill-opacity: 0" stroke-width="2" stroke-opacity="1" stroke-dasharray="0" fill-opacity="0" transform="rotate(270 97.66233766233766 98.7012987012987)"/><path fill="#000000" stroke="#000000" d="M 108.052,88.3117 L 173.506,88.3117" style="stroke-width: 2px;stroke-opacity: 1;fill-opacity: 0" stroke-width="2" stroke-opacity="1" stroke-dasharray="0" fill-opacity="0" transform="rotate(270 108.05194805194805 88.3116883116883)"/><path fill="#000000" stroke="#000000" d="M 87.2727,109.091 L 116.659,109.091" style="stroke-width: 2px;stroke-opacity: 1;fill-opacity: 0" stroke-width="2" stroke-opacity="1" stroke-dasharray="0" fill-opacity="0" transform="rotate(315 87.27272727272727 109.09090909090908)"/><path fill="#000000" stroke="#000000" d="M 87.2727,87.2727 L 116.659,87.2727" style="stroke-width: 2px;stroke-opacity: 1;fill-opacity: 0" stroke-width="2" stroke-opacity="1" stroke-dasharray="0" fill-opacity="0" transform="rotate(315 87.27272727272727 87.27272727272727)"/><path fill="#000000" stroke="#000000" d="M 87.2727,65.4545 L 116.659,65.4545" style="stroke-width: 2px;stroke-opacity: 1;fill-opacity: 0" stroke-width="2" stroke-opacity="1" stroke-dasharray="0" fill-opacity="0" transform="rotate(315 87.27272727272727 65.45454545454545)"/><path fill="#000000" stroke="#000000" d="M 87.2727,43.6364 L 116.659,43.6364" style="stroke-width: 2px;stroke-opacity: 1;fill-opacity: 0" stroke-width="2" stroke-opacity="1" stroke-dasharray="0" fill-opacity="0" transform="rotate(315 87.27272727272727 43.63636363636363)"/><path fill="#29abca" stroke="#29abca" d="M 21.8182,43.6364 L 87.2727,43.6364 L 108.052,22.8571 L 42.5974,22.8571 Z" style="stroke-width: 2px;fill-opacity: 1;stroke-opacity: 1" stroke-width="2" fill-opacity="1" stroke-opacity="1" stroke-dasharray="0"/><path fill="#000000" stroke="#000000" d="M 21.8182,43.6364 L 51.2044,43.6364" style="stroke-width: 2px;stroke-opacity: 1;fill-opacity: 0" stroke-width="2" stroke-opacity="1" stroke-dasharray="0" fill-opacity="0" transform="rotate(315 21.818181818181817 43.63636363636363)"/><path fill="#000000" stroke="#000000" d="M 43.6364,43.6364 L 73.0226,43.6364" style="stroke-width: 2px;stroke-opacity: 1;fill-opacity: 0" stroke-width="2" stroke-opacity="1" stroke-dasharray="0" fill-opacity="0" transform="rotate(315 43.63636363636363 43.63636363636363)"/><path fill="#000000" stroke="#000000" d="M 65.4545,43.6364 L 94.8408,43.6364" style="stroke-width: 2px;stroke-opacity: 1;fill-opacity: 0" stroke-width="2" stroke-opacity="1" stroke-dasharray="0" fill-opacity="0" transform="rotate(315 65.45454545454545 43.63636363636363)"/><path fill="#000000" stroke="#000000" d="M 87.2727,43.6364 L 116.659,43.6364" style="stroke-width: 2px;stroke-opacity: 1;fill-opacity: 0" stroke-width="2" stroke-opacity="1" stroke-dasharray="0" fill-opacity="0" transform="rotate(315 87.27272727272727 43.63636363636363)"/><path fill="#000000" stroke="#000000" d="M 21.8182,43.6364 L 87.2727,43.6364" style="stroke-width: 2px;stroke-opacity: 1;fill-opacity: 0" stroke-width="2" stroke-opacity="1" stroke-dasharray="0" fill-opacity="0" transform=""/><path fill="#000000" stroke="#000000" d="M 32.2078,33.2468 L 97.6623,33.2468" style="stroke-width: 2px;stroke-opacity: 1;fill-opacity: 0" stroke-width="2" stroke-opacity="1" stroke-dasharray="0" fill-opacity="0" transform=""/><path fill="#000000" stroke="#000000" d="M 42.5974,22.8571 L 108.052,22.8571" style="stroke-width: 2px;stroke-opacity: 1;fill-opacity: 0" stroke-width="2" stroke-opacity="1" stroke-dasharray="0" fill-opacity="0" transform=""/></svg>